Coordinates
version=1
nRows=49
nColumns=12
inDegrees=yes

Units are S.I. units (second, meters, Newtons, ...)
Angles are in degrees

endheader
time	SC_y	SC_z	SC_x	AC_y	AC_z	AC_x	GH_y	GH_z	GH_yy	EL_x	PS_y
       0.0              -45.78          14.59          32.11          49.51         -17.14         -2.522          26.72          9.598         -167.0          25.57          158.1
  0.008265              -45.77          14.59          32.11          49.51         -17.13         -2.525           26.7          9.594         -167.0          25.58          158.1
   0.01653              -45.77          14.59           32.1          49.51         -17.13         -2.527          26.68           9.59         -167.0          25.58          158.1
    0.0248              -45.77          14.58           32.1          49.51         -17.13          -2.53          26.66          9.586         -166.9          25.59          158.1
   0.03306              -45.76          14.58          32.09          49.51         -17.12         -2.533          26.63          9.581         -166.9           25.6          158.1
   0.04133              -45.76          14.58          32.09          49.51         -17.12         -2.536          26.61          9.577         -166.9          25.61          158.0
   0.04959              -45.75          14.58          32.09          49.51         -17.12          -2.54          26.58          9.571         -166.8          25.62          158.0
   0.05786              -45.75          14.57          32.08          49.51         -17.11         -2.543          26.56          9.566         -166.8          25.62          158.0
   0.06612              -45.74          14.57          32.08          49.51         -17.11         -2.547          26.53           9.56         -166.7          25.63          158.0
   0.07439              -45.74          14.57          32.07          49.51          -17.1         -2.551          26.49          9.554         -166.7          25.65          158.0
   0.08265              -45.73          14.56          32.07          49.51          -17.1         -2.556          26.46          9.547         -166.6          25.66          158.0
   0.09092              -45.72          14.56          32.06          49.51         -17.09         -2.561          26.42           9.54         -166.6          25.67          158.0
   0.09918              -45.72          14.56          32.05          49.51         -17.09         -2.566          26.38          9.532         -166.5          25.68          158.0
    0.1074              -45.71          14.55          32.04          49.51         -17.08         -2.571          26.34          9.523         -166.5           25.7          157.9
    0.1157               -45.7          14.55          32.04          49.51         -17.07         -2.578          26.29          9.514         -166.4          25.71          157.9
     0.124              -45.69          14.54          32.03          49.51         -17.07         -2.584          26.24          9.504         -166.3          25.73          157.9
    0.1322              -45.68          14.54          32.02          49.51         -17.06         -2.591          26.19          9.493         -166.3          25.75          157.9
    0.1405              -45.67          14.53          32.01           49.5         -17.05         -2.599          26.13          9.481         -166.2          25.77          157.9
    0.1488              -45.66          14.52           32.0           49.5         -17.04         -2.608          26.07          9.468         -166.1          25.79          157.8
     0.157              -45.65          14.52          31.99           49.5         -17.03         -2.617          25.99          9.454         -166.0          25.81          157.8
    0.1653              -45.63          14.51          31.97           49.5         -17.02         -2.627          25.92          9.439         -165.9          25.84          157.8
    0.1736              -45.62           14.5          31.96           49.5          -17.0         -2.639          25.83          9.421         -165.8          25.87          157.7
    0.1818               -45.6          14.49          31.94           49.5         -16.99         -2.651          25.74          9.403         -165.6           25.9          157.7
    0.1901              -45.58          14.48          31.92           49.5         -16.97         -2.665          25.63          9.382         -165.5          25.93          157.7
    0.1984              -45.56          14.47           31.9          49.49         -16.96          -2.68          25.51          9.358         -165.3          25.97          157.6
    0.2066              -45.53          14.45          31.88          49.49         -16.94         -2.697          25.38          9.332         -165.1          26.02          157.6
    0.2149              -45.51          14.44          31.86          49.49         -16.92         -2.716          25.24          9.303         -164.9          26.07          157.5
    0.2232              -45.48          14.42          31.83          49.49         -16.89         -2.738          25.07           9.27         -164.7          26.12          157.4
    0.2314              -45.44           14.4           31.8          49.49         -16.86         -2.762          24.89          9.233         -164.4          26.18          157.4
    0.2397               -45.4          14.38          31.76          49.48         -16.83          -2.79          24.68          9.191         -164.1          26.25          157.3
     0.248              -45.36          14.36          31.72          49.48          -16.8         -2.822          24.44          9.144         -163.8          26.33          157.2
    0.2562              -45.31          14.33          31.67          49.47         -16.75         -2.858          24.16          9.088         -163.4          26.43          157.1
    0.2645              -45.25           14.3          31.62          49.47         -16.71           -2.9          23.84          9.025         -162.9          26.53          157.0
    0.2727              -45.18          14.26          31.56          49.46         -16.65         -2.948          23.47          8.951         -162.4          26.66          156.8
     0.281               -45.1          14.21          31.48          49.46         -16.59         -3.005          23.04          8.865         -161.8           26.8          156.7
    0.2893              -45.01          14.16           31.4          49.45         -16.51         -3.072          22.53          8.763         -161.1          26.97          156.5
    0.2975               -44.9           14.1          31.29          49.44         -16.42         -3.152          21.92          8.642         -160.2          27.17          156.2
    0.3058              -44.77          14.02          31.17          49.43         -16.31         -3.248          21.19          8.497         -159.2          27.42          155.9
    0.3141              -44.61          13.93          31.02          49.42         -16.18         -3.363          20.31          8.321         -157.9          27.71          155.6
    0.3223              -44.41          13.82          30.84           49.4         -16.02         -3.505          19.24          8.107         -156.4          28.07          155.2
    0.3306              -44.17          13.69          30.61          49.38         -15.82         -3.679          17.91          7.843         -154.5          28.51          154.7
    0.3389              -43.87          13.52          30.33          49.35         -15.58         -3.896          16.25          7.513         -152.1          29.07          154.0
    0.3471              -43.49           13.3          29.97          49.32         -15.27          -4.17          14.17          7.097         -149.2          29.76          153.2
    0.3554               -43.0          13.03          29.52          49.28         -14.87         -4.518          11.52          6.569         -145.4          30.65          152.2
    0.3637              -42.38          12.69          28.95          49.23         -14.37         -4.964          8.126          5.893         -140.6          31.78          150.8
    0.3719              -41.59          12.24           28.2          49.16         -13.72         -5.536          3.772          5.025         -134.4          33.24          149.1
    0.3802              -40.57          11.67          27.26          49.08         -12.89         -6.266         -1.789          3.916         -126.5           35.1          147.0
    0.3885              -39.29          10.95          26.07          48.97         -11.85         -7.185         -8.782          2.523         -116.5          37.43          144.3
    0.3967              -37.74          10.08          24.62          48.84         -10.58         -8.304          -17.3         0.8242         -104.4          40.28          140.9
